# xmcd
#
# Track frame offsets:
#	150
#	15920
#	29992
#	46122
#	63400
#	77815
#	89785
#	103972
#	119835
#	138387
#
# Disc length: 2088 seconds
#
# Revision: 5
# Processed by: cddbd v1.5.2PL0 Copyright (c) Steve Scherf et al.
# Submitted via: EZCDAudioConverter 6.0.5.1
#
DISCID=8f08260a
DTITLE=Lionel Cartwright - Chasin' The Sun
DYEAR=1991
DGENRE=Country
TTITLE0=Waitin' For The Sun To Shine
TTITLE1=Susannah
TTITLE2=30 Nothin'
TTITLE3=What Kind Of Fool
TTITLE4=When You Cross That Line
TTITLE5=I'm Your Man
TTITLE6=Smack Dab In The Middle Of Love
TTITLE7=Family Tree
TTITLE8=Great Expectations
TTITLE9=Leap Of Faith
EXTD=
EXTT0=
EXTT1=
EXTT2=
EXTT3=
EXTT4=
EXTT5=
EXTT6=
EXTT7=
EXTT8=
EXTT9=
PLAYORDER=
